<svg xmlns="http://www.w3.org/2000/svg" viewBox="0 0 100 100" width="100" height="100">
  <!-- Metro Point Technology Favicon - Icon only -->
  <defs>
    <linearGradient id="sunGrad" x1="0%" y1="0%" x2="0%" y2="100%">
      <stop offset="0%" style="stop-color:#E5C158;stop-opacity:1" />
      <stop offset="100%" style="stop-color:#D4AF37;stop-opacity:1" />
    </linearGradient>
  </defs>

  <!-- Golden sun -->
  <circle cx="50" cy="25" r="18" fill="url(#sunGrad)" opacity="0.9"/>

  <!-- Three tech server blocks -->
  <!-- Left -->
  <g>
    <rect x="20" y="40" width="18" height="35" fill="#003B5C" stroke="#8BA5B8" stroke-width="0.5"/>
    <line x1="24" y1="45" x2="24" y2="70" stroke="#8BA5B8" stroke-width="0.3"/>
    <line x1="34" y1="45" x2="34" y2="70" stroke="#8BA5B8" stroke-width="0.3"/>
    <circle cx="29" cy="50" r="1.5" fill="#D4AF37"/>
    <circle cx="29" cy="57" r="1.5" fill="#8BA5B8"/>
    <circle cx="29" cy="64" r="1.5" fill="#8BA5B8"/>
  </g>

  <!-- Center (taller) -->
  <g>
    <rect x="42" y="30" width="18" height="45" fill="#002940" stroke="#8BA5B8" stroke-width="0.5"/>
    <line x1="46" y1="35" x2="46" y2="70" stroke="#8BA5B8" stroke-width="0.3"/>
    <line x1="56" y1="35" x2="56" y2="70" stroke="#8BA5B8" stroke-width="0.3"/>
    <circle cx="51" cy="40" r="1.5" fill="#D4AF37"/>
    <circle cx="51" cy="47" r="1.5" fill="#8BA5B8"/>
    <circle cx="51" cy="54" r="1.5" fill="#8BA5B8"/>
    <circle cx="51" cy="61" r="1.5" fill="#D4AF37"/>
  </g>

  <!-- Right -->
  <g>
    <rect x="64" y="35" width="18" height="40" fill="#003B5C" stroke="#8BA5B8" stroke-width="0.5"/>
    <line x1="68" y1="40" x2="68" y2="70" stroke="#8BA5B8" stroke-width="0.3"/>
    <line x1="78" y1="40" x2="78" y2="70" stroke="#8BA5B8" stroke-width="0.3"/>
    <circle cx="73" cy="45" r="1.5" fill="#8BA5B8"/>
    <circle cx="73" cy="52" r="1.5" fill="#D4AF37"/>
    <circle cx="73" cy="59" r="1.5" fill="#8BA5B8"/>
  </g>

  <!-- Golden swoosh -->
  <path d="M 15 80 Q 50 72, 85 80"
        fill="none"
        stroke="#D4AF37"
        stroke-width="3"
        stroke-linecap="round"/>
</svg>
